<svg width="48" height="48" viewBox="0 0 48 48" fill="none" xmlns="http://www.w3.org/2000/svg">
<g opacity="0.11" clip-path="url(#clip0_13068_1897)">
<path d="M24.0076 0C13.9878 0 11.0574 0.0103406 10.4878 0.0575999C8.43157 0.228568 7.15207 0.552416 5.75809 1.24661C4.68385 1.78021 3.83661 2.39872 3.00046 3.26575C1.47768 4.84693 0.55477 6.79219 0.220672 9.10452C0.0582492 10.2271 0.0109896 10.456 0.00139265 16.1899C-0.00229013 18.1012 0.00139265 20.6166 0.00139265 23.9906C0.00139265 34.005 0.012459 36.9332 0.0604621 37.5019C0.226586 39.5033 0.540365 40.7625 1.20486 42.1398C2.47478 44.7763 4.90015 46.7556 7.75747 47.4941C8.74683 47.7489 9.83955 47.8892 11.2424 47.9557C11.8367 47.9815 17.8946 48 23.9563 48C30.0179 48 36.0795 47.9926 36.6591 47.9631C38.2834 47.8866 39.2266 47.76 40.2695 47.4904C43.1453 46.7482 45.5264 44.7985 46.8221 42.125C47.4737 40.7809 47.8041 39.4737 47.9536 37.5768C47.9861 37.1633 47.9998 30.5693 47.9998 23.9843C47.9998 17.3981 47.985 10.8164 47.9525 10.4028C47.8011 8.47529 47.4707 7.17919 46.7981 5.80922C46.2463 4.68777 45.6334 3.85027 44.7438 2.99398C43.156 1.47705 41.2142 0.553885 38.9003 0.220077C37.7791 0.0579629 37.5558 0.00995981 31.819 0H24.0076Z" fill="url(#paint0_radial_13068_1897)"/>
<path d="M24.0076 0C13.9878 0 11.0574 0.0103406 10.4878 0.0575999C8.43157 0.228568 7.15207 0.552416 5.75809 1.24661C4.68385 1.78021 3.83661 2.39872 3.00046 3.26575C1.47768 4.84693 0.55477 6.79219 0.220672 9.10452C0.0582492 10.2271 0.0109896 10.456 0.00139265 16.1899C-0.00229013 18.1012 0.00139265 20.6166 0.00139265 23.9906C0.00139265 34.005 0.012459 36.9332 0.0604621 37.5019C0.226586 39.5033 0.540365 40.7625 1.20486 42.1398C2.47478 44.7763 4.90015 46.7556 7.75747 47.4941C8.74683 47.7489 9.83955 47.8892 11.2424 47.9557C11.8367 47.9815 17.8946 48 23.9563 48C30.0179 48 36.0795 47.9926 36.6591 47.9631C38.2834 47.8866 39.2266 47.76 40.2695 47.4904C43.1453 46.7482 45.5264 44.7985 46.8221 42.125C47.4737 40.7809 47.8041 39.4737 47.9536 37.5768C47.9861 37.1633 47.9998 30.5693 47.9998 23.9843C47.9998 17.3981 47.985 10.8164 47.9525 10.4028C47.8011 8.47529 47.4707 7.17919 46.7981 5.80922C46.2463 4.68777 45.6334 3.85027 44.7438 2.99398C43.156 1.47705 41.2142 0.553885 38.9003 0.220077C37.7791 0.0579629 37.5558 0.00995981 31.819 0H24.0076Z" fill="url(#paint1_radial_13068_1897)"/>
<path d="M24.0076 0C13.9878 0 11.0574 0.0103406 10.4878 0.0575999C8.43157 0.228568 7.15207 0.552416 5.75809 1.24661C4.68385 1.78021 3.83661 2.39872 3.00046 3.26575C1.47768 4.84693 0.55477 6.79219 0.220672 9.10452C0.0582492 10.2271 0.0109896 10.456 0.00139265 16.1899C-0.00229013 18.1012 0.00139265 20.6166 0.00139265 23.9906C0.00139265 34.005 0.012459 36.9332 0.0604621 37.5019C0.226586 39.5033 0.540365 40.7625 1.20486 42.1398C2.47478 44.7763 4.90015 46.7556 7.75747 47.4941C8.74683 47.7489 9.83955 47.8892 11.2424 47.9557C11.8367 47.9815 17.8946 48 23.9563 48C30.0179 48 36.0795 47.9926 36.6591 47.9631C38.2834 47.8866 39.2266 47.76 40.2695 47.4904C43.1453 46.7482 45.5264 44.7985 46.8221 42.125C47.4737 40.7809 47.8041 39.4737 47.9536 37.5768C47.9861 37.1633 47.9998 30.5693 47.9998 23.9843C47.9998 17.3981 47.985 10.8164 47.9525 10.4028C47.8011 8.47529 47.4707 7.17919 46.7981 5.80922C46.2463 4.68777 45.6334 3.85027 44.7438 2.99398C43.156 1.47705 41.2142 0.553885 38.9003 0.220077C37.7791 0.0579629 37.5558 0.00995981 31.819 0H24.0076Z" fill="url(#paint2_radial_13068_1897)"/>
<path d="M24.0076 0C13.9878 0 11.0574 0.0103406 10.4878 0.0575999C8.43157 0.228568 7.15207 0.552416 5.75809 1.24661C4.68385 1.78021 3.83661 2.39872 3.00046 3.26575C1.47768 4.84693 0.55477 6.79219 0.220672 9.10452C0.0582492 10.2271 0.0109896 10.456 0.00139265 16.1899C-0.00229013 18.1012 0.00139265 20.6166 0.00139265 23.9906C0.00139265 34.005 0.012459 36.9332 0.0604621 37.5019C0.226586 39.5033 0.540365 40.7625 1.20486 42.1398C2.47478 44.7763 4.90015 46.7556 7.75747 47.4941C8.74683 47.7489 9.83955 47.8892 11.2424 47.9557C11.8367 47.9815 17.8946 48 23.9563 48C30.0179 48 36.0795 47.9926 36.6591 47.9631C38.2834 47.8866 39.2266 47.76 40.2695 47.4904C43.1453 46.7482 45.5264 44.7985 46.8221 42.125C47.4737 40.7809 47.8041 39.4737 47.9536 37.5768C47.9861 37.1633 47.9998 30.5693 47.9998 23.9843C47.9998 17.3981 47.985 10.8164 47.9525 10.4028C47.8011 8.47529 47.4707 7.17919 46.7981 5.80922C46.2463 4.68777 45.6334 3.85027 44.7438 2.99398C43.156 1.47705 41.2142 0.553885 38.9003 0.220077C37.7791 0.0579629 37.5558 0.00995981 31.819 0H24.0076Z" fill="url(#paint3_radial_13068_1897)"/>
<path d="M24.0097 6.16327C19.1629 6.16327 18.5546 6.18444 16.6509 6.27101C14.751 6.35795 13.4541 6.65852 12.3194 7.09955C11.1456 7.55503 10.1499 8.16434 9.1579 9.15595C8.16518 10.1472 7.5554 11.1422 7.09808 12.3147C6.65563 13.449 6.35445 14.7453 6.26895 16.6431C6.18381 18.5453 6.1615 19.1535 6.1615 23.9968C6.1615 28.8401 6.18307 29.446 6.26932 31.3483C6.3567 33.2468 6.65749 34.5427 7.09845 35.6766C7.55466 36.8495 8.16442 37.8445 9.15677 38.8357C10.1484 39.8277 11.1441 40.4385 12.3171 40.894C13.4526 41.335 14.7499 41.6356 16.6494 41.7226C18.5531 41.8091 19.161 41.8303 24.0075 41.8303C28.8548 41.8303 29.4612 41.8091 31.3648 41.7225C33.2648 41.6356 34.5631 41.335 35.6986 40.894C36.872 40.4385 37.8663 39.8277 38.8579 38.8357C39.8506 37.8445 40.4604 36.8495 40.9177 35.677C41.3564 34.5427 41.6576 33.2464 41.7468 31.3486C41.8323 29.4464 41.8546 28.8401 41.8546 23.9968C41.8546 19.1535 41.8323 18.5457 41.7468 16.6434C41.6576 14.7449 41.3564 13.449 40.9177 12.3151C40.4604 11.1422 39.8506 10.1472 38.8579 9.15595C37.8651 8.16396 36.8724 7.55465 35.6975 7.09953C34.5598 6.65852 33.2622 6.35795 31.3622 6.27101C29.4586 6.18444 28.8525 6.16327 24.0042 6.16327H24.0097ZM22.4087 9.37702C22.8839 9.37628 23.4141 9.37702 24.0097 9.37702C28.7748 9.37702 29.3396 9.39411 31.2213 9.47956C32.9614 9.55908 33.9058 9.8496 34.5349 10.0937C35.3677 10.4169 35.9615 10.8033 36.5858 11.4275C37.2104 12.0517 37.5971 12.6461 37.9213 13.4783C38.1656 14.1062 38.4567 15.0499 38.5359 16.7887C38.6214 18.6686 38.64 19.2334 38.64 23.9927C38.64 28.752 38.6214 29.3167 38.5359 31.1967C38.4563 32.9354 38.1656 33.8791 37.9213 34.507C37.5978 35.3393 37.2104 35.9319 36.5858 36.5556C35.9611 37.1798 35.3681 37.5662 34.5349 37.8894C33.9065 38.1347 32.9614 38.4244 31.2213 38.504C29.34 38.5894 28.7748 38.608 24.0097 38.608C19.2443 38.608 18.6795 38.5894 16.7982 38.504C15.0581 38.4237 14.1137 38.1332 13.4842 37.8891C12.6514 37.5658 12.0565 37.1794 11.4319 36.5553C10.8072 35.9311 10.4206 35.3382 10.0963 34.5055C9.85205 33.8777 9.56093 32.934 9.48175 31.1952C9.39622 29.3152 9.37912 28.7505 9.37912 23.9882C9.37912 19.226 9.39622 18.6642 9.48175 16.7842C9.56131 15.0455 9.85205 14.1018 10.0963 13.4732C10.4198 12.6409 10.8072 12.0465 11.4319 11.4223C12.0565 10.7981 12.6514 10.4117 13.4842 10.0878C14.1133 9.84254 15.0581 9.55276 16.7982 9.47287C18.4445 9.39856 19.0826 9.37628 22.4087 9.37254L22.4087 9.37702ZM33.5362 12.3381C32.3538 12.3381 31.3946 13.2956 31.3946 14.4774C31.3946 15.6589 32.3538 16.6174 33.5362 16.6174C34.7185 16.6174 35.6778 15.6589 35.6778 14.4774C35.6778 13.2959 34.7185 12.3374 33.5362 12.3374L33.5362 12.3381ZM24.0097 14.8385C18.9483 14.8385 14.8447 18.9391 14.8447 23.9968C14.8447 29.0544 18.9483 33.1532 24.0097 33.1532C29.0712 33.1532 33.1733 29.0544 33.1733 23.9968C33.1733 18.9391 29.0708 14.8385 24.0094 14.8385H24.0097ZM24.0097 18.0523C27.295 18.0523 29.9587 20.7136 29.9587 23.9968C29.9587 27.2796 27.295 29.9413 24.0097 29.9413C20.7241 29.9413 18.0608 27.2796 18.0608 23.9968C18.0608 20.7136 20.7241 18.0523 24.0097 18.0523Z" fill="white"/>
</g>
<defs>
<radialGradient id="paint0_radial_13068_1897" cx="0" cy="0" r="1" gradientTransform="matrix(-29.5179 8.32472 -5.99765 -21.2662 46.4498 22.4982)" gradientUnits="userSpaceOnUse">
<stop stop-color="#FF005F"/>
<stop offset="1" stop-color="#FC01D8"/>
</radialGradient>
<radialGradient id="paint1_radial_13068_1897" cx="0" cy="0" r="1" gradientUnits="userSpaceOnUse" gradientTransform="translate(12.7494 51.697) rotate(-90) scale(38.3145 40.6509)">
<stop stop-color="#FFCC00"/>
<stop offset="0.1242" stop-color="#FFCC00"/>
<stop offset="0.5672" stop-color="#FE4A05"/>
<stop offset="0.6942" stop-color="#FF0F3F"/>
<stop offset="1" stop-color="#FE0657" stop-opacity="0"/>
</radialGradient>
<radialGradient id="paint2_radial_13068_1897" cx="0" cy="0" r="1" gradientTransform="matrix(7.95273 -13.7028 17.8395 10.3536 25.2127 47.3231)" gradientUnits="userSpaceOnUse">
<stop stop-color="#FFCC00"/>
<stop offset="1" stop-color="#FFCC00" stop-opacity="0"/>
</radialGradient>
<radialGradient id="paint3_radial_13068_1897" cx="0" cy="0" r="1" gradientTransform="matrix(-29.1938 8.22048 -2.79999 -9.9465 6.51233 1.95455)" gradientUnits="userSpaceOnUse">
<stop stop-color="#780CFF"/>
<stop offset="1" stop-color="#820BFF" stop-opacity="0"/>
</radialGradient>
<clipPath id="clip0_13068_1897">
<rect width="48" height="48" fill="white"/>
</clipPath>
</defs>
</svg>
